<svg width="35" height="30" viewBox="0 0 49 30" fill="none" xmlns="http://www.w3.org/2000/svg">
<path d="M40.214 19.1162C41.366 18.1202 42.272 17.3042 42.932 16.6682C43.604 16.0202 44.162 15.3482 44.606 14.6522C45.05 13.9562 45.272 13.2602 45.272 12.5642C45.272 11.8442 45.098 11.2802 44.75 10.8722C44.414 10.4642 43.88 10.2602 43.148 10.2602C42.44 10.2602 41.888 10.4882 41.492 10.9442C41.108 11.3882 40.904 11.9882 40.88 12.7442H38.9C38.936 11.3762 39.344 10.3322 40.124 9.61225C40.916 8.88025 41.918 8.51425 43.13 8.51425C44.438 8.51425 45.458 8.87425 46.19 9.59425C46.934 10.3142 47.306 11.2742 47.306 12.4742C47.306 13.3382 47.084 14.1722 46.64 14.9762C46.208 15.7682 45.686 16.4822 45.074 17.1182C44.474 17.7422 43.706 18.4682 42.77 19.2962L41.96 20.0162H47.666V21.7262H38.918V20.2322L40.214 19.1162Z" fill="#37474F"/>
<path d="M13 0C10.0826 0 7.28473 1.15893 5.22183 3.22183C3.15893 5.28473 2 8.08262 2 11V28H1C0.734784 28 0.48043 28.1054 0.292893 28.2929C0.105357 28.4804 0 28.7348 0 29C0 29.2652 0.105357 29.5196 0.292893 29.7071C0.48043 29.8946 0.734784 30 1 30H25C25.2652 30 25.5196 29.8946 25.7071 29.7071C25.8946 29.5196 26 29.2652 26 29C26 28.7348 25.8946 28.4804 25.7071 28.2929C25.5196 28.1054 25.2652 28 25 28H24V11C24 8.08262 22.8411 5.28473 20.7782 3.22183C18.7153 1.15893 15.9174 0 13 0ZM12 12V16H7V12H12ZM19 12V16H14V12H19ZM7 18H12V22H7V18ZM14 18H19V22H14V18ZM7.09 10C7.33361 8.60942 8.05975 7.34926 9.14072 6.4412C10.2217 5.53314 11.5882 5.03533 13 5.03533C14.4118 5.03533 15.7783 5.53314 16.8593 6.4412C17.9402 7.34926 18.6664 8.60942 18.91 10H7.09ZM7 24H12V28H7V24ZM14 28V24H19V28H14ZM21 28V11C21 8.87827 20.1571 6.84344 18.6569 5.34315C17.1566 3.84285 15.1217 3 13 3C10.8783 3 8.84344 3.84285 7.34315 5.34315C5.84285 6.84344 5 8.87827 5 11V28H4V11C4 8.61305 4.94821 6.32387 6.63604 4.63604C8.32387 2.94821 10.6131 2 13 2C15.3869 2 17.6761 2.94821 19.364 4.63604C21.0518 6.32387 22 8.61305 22 11V28H21Z" fill="#325131"/>
</svg>
