<svg width="107" height="31" viewBox="0 0 172 31" fill="none" xmlns="http://www.w3.org/2000/svg">
<path d="M16.3813 0L19.9072 10.7334H20.0079L16.482 0H16.3813ZM31.7693 12.1696L31.6685 12.2452L22.5516 18.8969L26.0271 29.6808L26.0523 29.7563L26.1279 29.706L22.6775 18.9221L31.7945 12.2452L31.7693 12.1696ZM15.6258 23.9613L6.48364 30.5626L6.5592 30.613L15.6761 23.9865L15.6258 23.9613Z" fill="black"/>
<path d="M67.699 16.1554C67.699 17.1914 67.2517 17.4998 65.5734 18.0864C64.2295 18.5913 63.1949 18.8151 62.8866 18.8151C62.3265 18.8151 62.0757 18.3948 62.0757 17.527C62.0757 15.4559 62.662 12.9364 64.845 12.9364C66.8598 12.9364 67.699 15.1203 67.699 16.1554ZM45.8717 25.1977C45.8717 25.0294 45.8455 24.9185 45.7619 24.8339C45.5373 24.6091 44.6981 24.47 44.278 24.0498C43.9718 23.7414 43.7743 23.2102 43.7743 21.9787V17.2469C43.7743 16.882 43.8589 16.6593 44.2226 16.6593H49.0359C49.3996 16.6593 49.4832 16.882 49.4832 17.2469V21.9787C49.4832 23.2102 49.2878 23.7414 48.9795 24.0498C48.5595 24.47 47.7203 24.6091 47.4967 24.8339C47.412 24.9185 47.3848 25.0294 47.3848 25.1977C47.3848 25.9243 47.4966 26.654 47.6085 26.7649C47.7203 26.8777 47.8885 26.905 48.2522 26.905H56.1149C56.4786 26.905 56.6458 26.8778 56.7586 26.7649C56.8705 26.654 56.9833 25.9243 56.9833 25.1977C56.9833 25.0294 56.9541 24.9185 56.8705 24.8339C56.675 24.6383 55.8067 24.47 55.3866 24.0498C55.0803 23.7414 54.9121 23.1538 54.9121 22.2014V9.12876C54.9121 8.45754 55.0803 8.00804 55.3312 7.7581C55.7795 7.30961 56.675 7.22495 56.8705 7.02843C56.9541 6.94478 56.9833 6.77748 56.9833 6.63739C56.9833 6.13347 56.8705 5.37759 56.7586 5.26572C56.6458 5.15385 56.535 5.12463 56.1149 5.12463H48.5312C48.224 5.12463 48.1122 5.15381 48.0286 5.23851C47.9449 5.32216 47.8603 5.90973 47.8603 6.66561C47.8603 6.80469 47.8885 6.973 47.9449 7.02843C48.084 7.16952 48.7841 7.39326 49.0642 7.67344C49.3714 7.98184 49.4832 8.31745 49.4832 9.26885V12.9918C49.4832 13.1319 49.3432 13.3274 49.1478 13.3274H44.1108C43.9144 13.3274 43.7743 13.1319 43.7743 12.9918V9.26885C43.7743 8.31745 43.8861 7.98184 44.1944 7.67344C44.4745 7.39326 45.1736 7.16952 45.3136 7.02843C45.37 6.97296 45.3982 6.80469 45.3982 6.66561C45.3982 5.90973 45.3136 5.32216 45.23 5.23851C45.1464 5.15385 45.0336 5.12463 44.7263 5.12463H37.1436C36.7236 5.12463 36.6117 5.15381 36.4989 5.26572C36.3881 5.37759 36.2753 6.13347 36.2753 6.63739C36.2753 6.77748 36.3035 6.94478 36.3881 7.02843C36.5835 7.22495 37.4791 7.30961 37.9264 7.7581C38.1782 8.00804 38.3465 8.45754 38.3465 9.12876V22.2014C38.3465 23.1538 38.1782 23.7414 37.871 24.0498C37.4509 24.47 36.5835 24.6383 36.3881 24.8339C36.3035 24.9185 36.2753 25.0294 36.2753 25.1977C36.2753 25.9243 36.3881 26.654 36.4989 26.7649C36.6117 26.8777 36.7236 26.905 37.1436 26.905H45.0064C45.37 26.905 45.5373 26.8778 45.6501 26.7649C45.7619 26.654 45.8717 25.9243 45.8717 25.1977ZM71.8686 24.8056C72.6795 23.9943 72.877 23.5176 72.877 23.1256C72.877 22.7053 72.7641 22.3697 72.4287 22.0341C72.064 21.6703 71.7578 21.6138 71.4767 21.6138C71.0848 21.6138 70.9166 21.7257 70.6657 21.9787C69.4347 23.2102 67.8672 23.8815 65.9642 23.8815C64.0341 23.8815 62.8302 22.5944 62.8302 21.7811C62.8302 21.5584 63.0267 21.3619 63.5294 21.2218C68.9028 19.5417 71.1412 18.423 71.9804 17.5825C72.4559 17.135 72.6513 16.6029 72.6513 16.1272C72.6513 13.9996 69.5747 10.2213 64.845 10.2213C62.8866 10.2213 60.9 11.0033 59.4172 12.4879C57.9343 13.9724 57.0105 16.0707 57.0105 18.9269C57.0105 21.6703 57.8779 23.5741 59.389 25.0858C60.9 26.5976 63.0821 27.3534 65.4615 27.3534C67.8954 27.3534 70.1903 26.4857 71.8686 24.8056ZM80.6269 11.1716C80.6269 10.8088 80.4304 10.6677 80.1232 10.6677H74.7225C74.4143 10.6677 74.3034 10.6677 74.2178 10.7806C74.107 10.8925 73.9962 11.6483 73.9962 12.1533C73.9962 12.2924 74.0516 12.4032 74.107 12.4879C74.3034 12.7398 74.7225 12.8235 75.0872 13.1319C75.338 13.3838 75.4509 13.916 75.4509 14.7273V22.2014C75.4509 23.1538 75.338 23.7696 75.058 24.0498C74.6379 24.47 73.9388 24.6655 73.7433 24.8611C73.6879 24.9185 73.6597 25.0294 73.6597 25.2259C73.6597 25.9536 73.7715 26.654 73.8834 26.7649C73.968 26.8485 74.107 26.905 74.4143 26.905H81.6071C81.9143 26.905 82.0543 26.8485 82.138 26.7649C82.2498 26.654 82.3334 25.9536 82.3334 25.2259C82.3334 25.0294 82.3062 24.9185 82.2498 24.8611C82.0543 24.6655 81.4106 24.47 80.9905 24.0498C80.7115 23.7696 80.6269 23.1538 80.6269 22.2014V11.1716ZM77.6329 4.1178C76.0946 4.1178 74.8343 5.32216 74.8343 6.83391C74.8343 8.37288 76.0946 9.57724 77.6329 9.57724C79.2004 9.57724 80.4596 8.37288 80.4596 6.83391C80.4596 5.32216 79.2004 4.1178 77.6329 4.1178ZM99.3191 15.0075C99.3191 11.8721 97.6962 10.2767 95.1495 10.2767C93.9456 10.2767 92.6592 10.6677 91.3717 11.4528C90.9245 11.733 90.7844 11.8167 90.6726 11.8167C90.2243 11.8167 90.5326 10.6677 89.7206 10.6677H84.7965C84.4882 10.6677 84.4046 10.6677 84.2928 10.7806C84.1528 10.9207 84.0409 11.6483 84.0409 12.1533C84.0409 12.2924 84.0691 12.4032 84.1528 12.4879C84.3764 12.7126 84.7965 12.7963 85.1319 13.1319C85.3848 13.3838 85.4946 13.916 85.4946 14.7273V22.2014C85.4946 23.1538 85.411 23.7696 85.1319 24.0498C84.7401 24.4408 84.0691 24.6655 83.8727 24.8611C83.8173 24.9185 83.7881 25.0294 83.7881 25.2259C83.7881 25.9536 83.8727 26.654 83.9855 26.7649C84.0691 26.8485 84.2364 26.905 84.5446 26.905H91.5964C91.9319 26.905 92.0427 26.8485 92.1263 26.7649C92.2673 26.6248 92.3802 25.9536 92.3802 25.2259C92.3802 25.0294 92.351 24.9185 92.2945 24.8611C92.0719 24.6383 91.4282 24.4408 91.0363 24.0498C90.7562 23.7696 90.6172 23.1538 90.6172 22.2014V16.6875C90.6172 14.4199 91.8744 13.7205 92.7992 13.7205C93.7502 13.7205 94.2821 14.4199 94.2821 15.9024V23.6587C94.2821 25.7298 95.5978 27.1005 97.9762 27.1005C100.606 27.1005 101.725 25.1977 101.725 24.8056C101.725 24.47 101.194 23.7978 100.858 23.7978C100.466 23.7978 99.9064 24.3017 99.6264 24.3017C99.4309 24.3017 99.3191 24.1616 99.3191 23.7142V15.0075ZM151.17 24.8056C151.981 23.9943 152.176 23.5176 152.176 23.1256C152.176 22.7053 152.065 22.3697 151.73 22.0341C151.365 21.6703 151.056 21.6138 150.778 21.6138C150.386 21.6138 150.218 21.7257 149.966 21.9787C148.735 23.2102 147.168 23.8815 145.265 23.8815C143.335 23.8815 142.131 22.5944 142.131 21.7811C142.131 21.5584 142.327 21.3619 142.831 21.2218C148.203 19.5417 150.441 18.423 151.282 17.5825C151.757 17.135 151.952 16.6029 151.952 16.1272C151.952 13.9996 148.875 10.2213 144.146 10.2213C142.186 10.2213 140.2 11.0033 138.716 12.4879C137.234 13.9724 136.311 16.0707 136.311 18.9269C136.311 21.6703 137.178 23.5741 138.689 25.0858C140.2 26.5976 142.383 27.3534 144.761 27.3534C147.196 27.3534 149.491 26.4857 151.17 24.8056ZM147 16.1554C147 17.1914 146.553 17.4998 144.874 18.0864C143.531 18.5913 142.495 18.8151 142.186 18.8151C141.628 18.8151 141.375 18.3948 141.375 17.527C141.375 15.4559 141.963 12.9364 144.146 12.9364C146.16 12.9364 147 15.1203 147 16.1554ZM116.779 24.8056C117.59 23.9943 117.788 23.5176 117.788 23.1256C117.788 22.7053 117.675 22.3697 117.339 22.0341C116.976 21.6703 116.668 21.6138 116.388 21.6138C115.995 21.6138 115.828 21.7257 115.576 21.9787C114.345 23.2102 112.778 23.8815 110.875 23.8815C108.945 23.8815 107.741 22.5944 107.741 21.7811C107.741 21.5584 107.937 21.3619 108.441 21.2218C113.814 19.5417 116.052 18.423 116.891 17.5825C117.368 17.135 117.563 16.6029 117.563 16.1272C117.563 13.9996 114.485 10.2213 109.756 10.2213C107.797 10.2213 105.811 11.0033 104.328 12.4879C102.845 13.9724 101.921 16.0707 101.921 18.9269C101.921 21.6703 102.789 23.5741 104.299 25.0858C105.811 26.5976 107.994 27.3534 110.372 27.3534C112.806 27.3534 115.101 26.4857 116.779 24.8056ZM112.611 16.1554C112.611 17.1914 112.162 17.4998 110.484 18.0864C109.14 18.5913 108.106 18.8151 107.797 18.8151C107.237 18.8151 106.986 18.3948 106.986 17.527C106.986 15.4559 107.574 12.9364 109.756 12.9364C111.771 12.9364 112.611 15.1203 112.611 16.1554ZM168.629 15.0075C168.629 11.8721 167.007 10.2767 164.461 10.2767C163.257 10.2767 161.97 10.6677 160.684 11.4528C160.235 11.733 160.094 11.8167 159.984 11.8167C159.536 11.8167 159.843 10.6677 159.032 10.6677H154.108C153.8 10.6677 153.715 10.6677 153.604 10.7806C153.464 10.9207 153.352 11.6483 153.352 12.1533C153.352 12.2924 153.38 12.4032 153.464 12.4879C153.688 12.7126 154.108 12.7963 154.444 13.1319C154.695 13.3838 154.807 13.916 154.807 14.7273V22.2014C154.807 23.1538 154.723 23.7696 154.444 24.0498C154.051 24.4408 153.38 24.6655 153.185 24.8611C153.128 24.9185 153.1 25.0294 153.1 25.2259C153.1 25.9536 153.185 26.654 153.294 26.7649C153.38 26.8485 153.548 26.905 153.855 26.905H160.906C161.243 26.905 161.355 26.8485 161.439 26.7649C161.579 26.6248 161.69 25.9536 161.69 25.2259C161.69 25.0294 161.663 24.9185 161.606 24.8611C161.383 24.6383 160.739 24.4408 160.347 24.0498C160.067 23.7696 159.926 23.1538 159.926 22.2014V16.6875C159.926 14.4199 161.186 13.7205 162.11 13.7205C163.062 13.7205 163.593 14.4199 163.593 15.9024V23.6587C163.593 25.7298 164.909 27.1005 167.287 27.1005C169.917 27.1005 171.037 25.1977 171.037 24.8056C171.037 24.47 170.505 23.7978 170.169 23.7978C169.777 23.7978 169.218 24.3017 168.938 24.3017C168.742 24.3017 168.629 24.1616 168.629 23.7142V15.0075ZM124.697 4.62172H119.326C118.99 4.62172 118.849 4.62172 118.767 4.76281C118.654 4.90189 118.569 5.60234 118.569 6.07804C118.569 6.24534 118.599 6.35721 118.654 6.46908C118.849 6.66561 119.606 6.86113 119.941 7.19774C120.221 7.47792 120.362 8.03727 120.362 10.1638V21.3619C120.362 23.2385 120.166 23.826 119.941 24.0498C119.55 24.4408 118.879 24.6655 118.682 24.8611C118.627 24.9185 118.599 25.0294 118.599 25.2259C118.599 25.9536 118.682 26.654 118.794 26.7649C118.879 26.8485 118.99 26.905 119.354 26.905H126.378C126.741 26.905 126.852 26.8485 126.937 26.7649C127.049 26.654 127.189 25.9536 127.189 25.2259C127.189 25.0294 127.162 24.9185 127.077 24.8611C126.881 24.6655 126.21 24.4408 125.845 24.0498C125.539 23.7696 125.426 23.1538 125.426 22.2014V21.5584C125.426 21.1946 125.539 21.0817 126.154 20.4659C126.433 20.2149 126.684 20.0194 126.881 20.0194C127.161 20.0194 127.384 20.2149 130.463 26.4293C130.658 26.8213 130.742 26.905 131.245 26.905H135.806C136.142 26.905 136.255 26.8485 136.339 26.7649C136.451 26.654 136.563 25.9536 136.563 25.2259C136.563 25.0294 136.535 24.9185 136.478 24.8611C136.282 24.6655 135.108 24.5255 134.856 24.0498C130.799 17.1914 130.686 16.9667 130.686 16.5474C130.686 16.1836 132.478 14.3927 133.96 13.2165C134.912 12.4607 135.527 12.9636 135.527 12.0686C135.527 11.0326 135.388 10.6677 135.191 10.6677H128.421C127.832 10.6677 127.777 11.0033 127.777 12.2641C127.777 12.6834 128.952 12.7398 128.952 13.3274C128.952 13.8313 126.098 16.5757 125.622 16.5757C125.454 16.5757 125.426 16.4638 125.426 15.9871V5.40581C125.426 4.95732 125.117 4.62172 124.697 4.62172Z" fill="#00A650"/>
<path d="M15.6067 0.231323L19.3213 11.5334L31.2134 11.5752L21.6171 18.602L25.2522 29.93L15.6067 22.9707L5.96123 29.93L9.59636 18.602L0 11.5752L11.8921 11.5334L15.6067 0.231323Z" fill="#FF0000"/>
<path d="M168.644 4.03186C169.114 4.03186 169.565 4.15011 169.997 4.38659C170.43 4.62069 170.769 4.95751 171.015 5.39703C171.263 5.83656 171.387 6.29639 171.387 6.77653C171.387 7.25428 171.265 7.71053 171.022 8.14528C170.781 8.57764 170.443 8.91565 170.008 9.15931C169.576 9.40057 169.121 9.5212 168.644 9.5212C168.166 9.5212 167.71 9.40057 167.275 9.15931C166.843 8.91565 166.505 8.57764 166.262 8.14528C166.021 7.71053 165.9 7.25428 165.9 6.77653C165.9 6.29639 166.023 5.83656 166.269 5.39703C166.517 4.95751 166.858 4.62069 167.29 4.38659C167.722 4.15011 168.173 4.03186 168.644 4.03186ZM168.648 4.56933C168.27 4.56933 167.909 4.66369 167.562 4.85239C167.216 5.04111 166.943 5.31223 166.742 5.66576C166.544 6.0193 166.445 6.38955 166.445 6.77653C166.445 7.16112 166.542 7.52779 166.735 7.87655C166.931 8.2253 167.203 8.49762 167.552 8.69349C167.9 8.88938 168.266 8.98731 168.648 8.98731C169.032 8.98731 169.397 8.88938 169.744 8.69349C170.092 8.49762 170.364 8.2253 170.56 7.87655C170.756 7.52779 170.854 7.16112 170.854 6.77653C170.854 6.38955 170.754 6.0193 170.553 5.66576C170.355 5.31223 170.081 5.04111 169.733 4.85239C169.387 4.66369 169.025 4.56933 168.648 4.56933ZM167.405 8.2456V5.33253H167.996C168.55 5.33253 168.86 5.33495 168.927 5.33979C169.123 5.35656 169.274 5.39599 169.382 5.45803C169.492 5.51777 169.582 5.61091 169.654 5.73752C169.728 5.86174 169.765 6.00028 169.765 6.15316C169.765 6.36337 169.696 6.54373 169.557 6.69421C169.421 6.84231 169.229 6.93428 168.981 6.9701C169.069 7.00356 169.137 7.04057 169.185 7.08118C169.233 7.1194 169.298 7.19346 169.382 7.30334C169.403 7.33197 169.475 7.45024 169.597 7.65807L169.941 8.2457H169.21L168.966 7.77273C168.802 7.45503 168.665 7.25556 168.558 7.17434C168.451 7.09074 168.314 7.04894 168.15 7.04894H167.996V8.2457H167.405M167.996 6.5903H168.236C168.577 6.5903 168.788 6.57715 168.87 6.55087C168.953 6.52458 169.019 6.47919 169.067 6.41471C169.114 6.34779 169.138 6.27259 169.138 6.18898C169.138 6.10776 169.114 6.0361 169.067 5.97399C169.021 5.90949 168.956 5.86411 168.87 5.83783C168.784 5.80921 168.572 5.79477 168.236 5.79477H167.996V6.59021" fill="#00A650"/>
</svg>
