<svg width="70" height="38" viewBox="0 0 93 38" fill="none" xmlns="http://www.w3.org/2000/svg">
<path d="M0.953888 35.2141H18.7332V37.8402H0.953888V35.2141Z" fill="#1F70C1"/>
<path d="M0.953888 30.1769H18.7332V32.8123H0.953888V30.1769Z" fill="#1F70C1"/>
<path d="M6.02591 25.1489H13.6521V27.7844H6.02591V25.1489Z" fill="#1F70C1"/>
<path d="M6.02591 20.121H13.6521V22.7564H6.02591V20.121Z" fill="#1F70C1"/>
<path d="M6.02591 15.093H13.6521V17.7285H6.02591V15.093Z" fill="#1F70C1"/>
<path d="M6.02591 10.0558H13.6521V12.6912H6.02591V10.0558Z" fill="#1F70C1"/>
<path d="M18.7332 5.02783H0.953888V7.6633H18.7332V5.02783Z" fill="#1F70C1"/>
<path d="M18.7332 0H0.953888V2.63546H18.7332V0Z" fill="#1F70C1"/>
<path d="M21.2693 32.8122H48.613C49.0749 31.9992 49.4191 31.1113 49.6275 30.1768H21.2693V32.8122Z" fill="#1F70C1"/>
<path d="M46.4848 20.121H26.3506V22.7564H48.6133C48.0336 21.747 47.318 20.8593 46.4848 20.121Z" fill="#1F70C1"/>
<path d="M26.3506 15.093V17.7285H46.4848C47.3362 16.9902 48.0517 16.1023 48.6133 15.093H26.3506Z" fill="#1F70C1"/>
<path d="M48.6131 5.02783H21.2693V7.6633H49.6275C49.392 6.72873 49.0478 5.84096 48.6131 5.02783Z" fill="#1F70C1"/>
<path d="M40.208 0H21.2693V2.63546H46.7382C45.0355 1.00929 42.7259 0 40.208 0Z" fill="#1F70C1"/>
<path d="M33.9677 10.0558H26.3506V12.6912H33.9677V10.0558Z" fill="#1F70C1"/>
<path d="M41.5938 12.6912H49.5641C49.7905 11.8502 49.9083 10.9623 49.9083 10.0558H41.5938V12.6912Z" fill="#1F70C1"/>
<path d="M26.3506 25.1489H33.9677V27.7844H26.3506V25.1489Z" fill="#1F70C1"/>
<path d="M41.5938 25.1489V27.7844H49.9083C49.9083 26.8778 49.7905 25.9901 49.5641 25.1489H41.5938Z" fill="#1F70C1"/>
<path d="M21.2693 37.8216L40.208 37.8496C42.744 37.8496 45.0355 36.8403 46.7473 35.2141H21.2693V37.8216Z" fill="#1F70C1"/>
<path d="M51.756 35.2141H64.4541V37.8402H51.756V35.2141Z" fill="#1F70C1"/>
<path d="M51.756 30.1769H64.4541V32.8123H51.756V30.1769Z" fill="#1F70C1"/>
<path d="M56.828 25.1489H64.4541V27.7844H56.828V25.1489Z" fill="#1F70C1"/>
<path d="M56.828 20.121H64.4541V22.7564H56.828V20.121Z" fill="#1F70C1"/>
<path d="M67.9865 5.02783H51.756V7.6633H68.865L67.9865 5.02783Z" fill="#1F70C1"/>
<path d="M66.3018 0H51.756V2.63546H67.1803L66.3018 0Z" fill="#1F70C1"/>
<path d="M79.6886 35.2141H92.3959V37.8402H79.6886V35.2141Z" fill="#1F70C1"/>
<path d="M79.6886 30.1769H92.3959V32.8123H79.6886V30.1769Z" fill="#1F70C1"/>
<path d="M79.6886 25.1489H87.3147V27.7844H79.6886V25.1489Z" fill="#1F70C1"/>
<path d="M79.6886 20.121H87.3147V22.7564H79.6886V20.121Z" fill="#1F70C1"/>
<path d="M79.6884 17.7285H87.3146V15.093H79.6884H72.7868L72.0713 17.2239L71.3558 15.093H64.4541H56.828V17.7285H64.4541V15.308L65.2603 17.7285H78.8823L79.6884 15.308V17.7285Z" fill="#1F70C1"/>
<path d="M87.3148 10.0558H74.4717L73.5931 12.6912H87.3148V10.0558Z" fill="#1F70C1"/>
<path d="M77.8497 0L76.9712 2.63546H92.3956V0H77.8497Z" fill="#1F70C1"/>
<path d="M72.0715 37.8216L72.95 35.2141H71.193L72.0715 37.8216Z" fill="#1F70C1"/>
<path d="M70.3868 32.8123H73.756L74.6617 30.1769H69.4901L70.3868 32.8123Z" fill="#1F70C1"/>
<path d="M68.6748 27.7844H75.4678L76.3645 25.1489H67.7782L68.6748 27.7844Z" fill="#1F70C1"/>
<path d="M66.9719 22.7564H77.1794L78.0489 20.121H66.0934L66.9719 22.7564Z" fill="#1F70C1"/>
<path d="M56.828 12.6912H70.5496L69.6711 10.0558H56.828V12.6912Z" fill="#1F70C1"/>
<path d="M75.2867 7.6633H92.3958V5.02783H76.1562L75.2867 7.6633Z" fill="#1F70C1"/>
</svg>
