<svg width="107" height="33" viewBox="0 0 172 33" fill="none" xmlns="http://www.w3.org/2000/svg">
<path d="M58.2443 1.61783H49.0456L49.0456 13.5982L39.47 13.5982L39.47 1.61783H30.2713L30.2713 31.7594H39.47V19.9032H49.0456V31.7594H58.2443L58.2443 1.61783ZM90.2428 25.7028V1.61783H81.044V31.7594H97.6771L99.0603 25.7028L90.2428 25.7028ZM74.2435 1.61783L65.0448 1.61783V31.7594L74.2435 31.7594V1.61783ZM111.535 1.61783H102.341V31.7594H111.535V1.61783ZM156.886 9.31063C156.886 7.67013 158.526 6.91199 161.169 6.91199C164.068 6.91199 167.22 7.54591 169.361 8.43256L168.607 1.87054C166.209 1.36511 164.068 0.988186 160.167 0.988186C152.732 0.988186 147.692 3.92225 147.692 10.0688C147.692 20.6614 162.059 18.5197 162.059 23.4369C162.059 25.3259 160.668 26.3325 157.267 26.3325C154.248 26.3325 149.58 25.3259 146.81 23.9381L147.82 30.877C150.591 31.8879 154.368 32.389 157.396 32.389C165.079 32.389 171.378 29.8662 171.378 22.2976C171.378 12.2147 156.886 14.1036 156.886 9.31063ZM130.939 24.572C139.5 24.572 144.921 20.1559 144.921 12.4631C144.921 4.01648 139.127 0.988186 129.676 0.988186C126.023 0.988186 121.612 1.2409 118.464 1.61783V31.7594H127.663V24.572H130.939ZM135.851 12.5916C135.851 16.498 133.962 19.1494 129.17 19.1494H127.663V6.69354C128.198 6.66356 128.699 6.66356 129.17 6.66356C133.705 6.66356 135.851 8.8052 135.851 12.5916ZM12.6362 24.572C21.2011 24.572 26.6184 20.1559 26.6184 12.4631C26.6184 4.01648 20.8242 0.988186 11.3771 0.988186C7.7199 0.988186 3.31326 1.2409 0.161377 1.61783L0.161377 31.7594H9.36008L9.36008 24.572H12.6362ZM17.5524 12.5916C17.5524 16.498 15.6596 19.1494 10.8718 19.1494H9.36008L9.36008 6.69354C9.89539 6.66356 10.4007 6.66356 10.8718 6.66356C15.4069 6.66356 17.5524 8.8052 17.5524 12.5916Z" fill="#0B5ED7"/>
</svg>
