<svg width="64" height="64" viewBox="0 0 64 64" fill="none" xmlns="http://www.w3.org/2000/svg">
<g clip-path="url(#clip0_1_469)">
<path d="M32.0588 11C23.1905 11 16 18.0522 16 26.75C16 33.1 18.2558 34.8736 30.4111 52.1551C31.2083 53.2846 32.9128 53.2846 33.7099 52.1551C45.8594 34.8711 48.1176 33.0992 48.1176 26.75C48.1176 18.0522 40.9246 11 32.0588 11ZM32.0588 33.2387C28.3678 33.2387 25.3676 30.2954 25.3676 26.6762C25.3676 23.057 28.3703 20.1137 32.0588 20.1137C35.7473 20.1137 38.75 23.057 38.75 26.6762C38.75 30.2954 35.7473 33.2387 32.0588 33.2387Z" fill="#325131"/>
</g>
<defs>
<clipPath id="clip0_1_469">
<rect width="32.1176" height="42" fill="white" transform="translate(16 11)"/>
</clipPath>
</defs>
</svg>
