<svg width="35" height="33" viewBox="0 0 52 33" fill="none" xmlns="http://www.w3.org/2000/svg">
<path d="M30.1719 14.2188H29.625V3.39065C29.625 2.4914 29.2678 1.62898 28.6319 0.993114C27.996 0.357249 27.1336 2.29802e-05 26.2344 2.29802e-05H23.5C23.1549 -0.0014241 22.8129 0.0654857 22.4937 0.196892C22.1746 0.328298 21.8847 0.521599 21.6406 0.765641C21.3966 1.00968 21.2033 1.29964 21.0719 1.61877C20.9405 1.9379 20.8735 2.2799 20.875 2.62502V3.4344C19.9382 3.67627 19.108 4.22183 18.5143 4.98573C17.9206 5.74963 17.5969 6.68879 17.5937 7.65627V8.75002C17.5937 9.0401 17.709 9.3183 17.9141 9.52342C18.1192 9.72854 18.3974 9.84377 18.6875 9.84377H25.25C25.5401 9.84377 25.8183 9.72854 26.0234 9.52342C26.2285 9.3183 26.3437 9.0401 26.3437 8.75002V7.65627C26.3406 6.68879 26.0169 5.74963 25.4231 4.98573C24.8294 4.22183 23.9993 3.67627 23.0625 3.4344V2.62502C23.0625 2.50899 23.1086 2.39771 23.1906 2.31566C23.2727 2.23362 23.384 2.18752 23.5 2.18752H26.2344C26.5526 2.19038 26.8569 2.31805 27.082 2.54307C27.307 2.76808 27.4346 3.07244 27.4375 3.39065V14.2188H2.82812C2.2537 14.2149 1.69277 14.3927 1.22552 14.7269C0.758278 15.061 0.408652 15.5344 0.226637 16.0792C0.0446226 16.624 0.0395401 17.2125 0.212117 17.7604C0.384694 18.3082 0.726092 18.7875 1.18749 19.1297V22.411C1.1923 23.8939 1.65511 25.3392 2.51263 26.5491C3.37014 27.759 4.58048 28.6745 5.97812 29.1703L4.65468 31.1172C4.49638 31.3583 4.43975 31.6523 4.4971 31.9349C4.55446 32.2176 4.72117 32.4662 4.96093 32.6266C5.13707 32.75 5.34746 32.815 5.56249 32.8125C5.74264 32.8116 5.91977 32.7662 6.07814 32.6803C6.23652 32.5944 6.37123 32.4708 6.47031 32.3203L8.34062 29.5313H24.6594L26.5297 32.3203C26.6288 32.4708 26.7635 32.5944 26.9218 32.6803C27.0802 32.7662 27.2573 32.8116 27.4375 32.8125C27.6525 32.815 27.8629 32.75 28.0391 32.6266C28.2788 32.4662 28.4455 32.2176 28.5029 31.9349C28.5602 31.6523 28.5036 31.3583 28.3453 31.1172L27.0219 29.1157C28.4195 28.6198 29.6298 27.7044 30.4874 26.4944C31.3449 25.2845 31.8077 23.8392 31.8125 22.3563V19.075C32.2518 18.7264 32.5727 18.2507 32.7315 17.7129C32.8903 17.1751 32.8792 16.6013 32.6997 16.07C32.5202 15.5387 32.1811 15.0758 31.7287 14.7445C31.2762 14.4131 30.7326 14.2295 30.1719 14.2188ZM24.1562 7.65627H19.7812C19.7812 7.07611 20.0117 6.51971 20.4219 6.10948C20.8322 5.69924 21.3886 5.46877 21.9687 5.46877C22.5489 5.46877 23.1053 5.69924 23.5155 6.10948C23.9258 6.51971 24.1562 7.07611 24.1562 7.65627ZM2.82812 16.4063H30.1719C30.3169 16.4063 30.456 16.4639 30.5586 16.5665C30.6611 16.669 30.7187 16.8081 30.7187 16.9531C30.7187 17.0982 30.6611 17.2373 30.5586 17.3398C30.456 17.4424 30.3169 17.5 30.1719 17.5H2.82812C2.68308 17.5 2.54398 17.4424 2.44142 17.3398C2.33886 17.2373 2.28124 17.0982 2.28124 16.9531C2.28124 16.8081 2.33886 16.669 2.44142 16.5665C2.54398 16.4639 2.68308 16.4063 2.82812 16.4063ZM29.625 22.3563C29.6221 23.6782 29.0957 24.9451 28.161 25.8798C27.2263 26.8145 25.9594 27.3409 24.6375 27.3438H8.3625C7.04062 27.3409 5.7737 26.8145 4.83899 25.8798C3.90428 24.9451 3.37788 23.6782 3.37499 22.3563V19.6875H29.625V22.3563Z" fill="#325131"/>
<path d="M42.044 13.0242C42.116 11.9082 42.542 11.0382 43.322 10.4142C44.114 9.79025 45.122 9.47825 46.346 9.47825C47.186 9.47825 47.912 9.62825 48.524 9.92825C49.136 10.2282 49.598 10.6362 49.91 11.1522C50.222 11.6682 50.378 12.2502 50.378 12.8982C50.378 13.6422 50.18 14.2782 49.784 14.8062C49.388 15.3342 48.914 15.6882 48.362 15.8682V15.9402C49.07 16.1562 49.622 16.5522 50.018 17.1282C50.414 17.6922 50.612 18.4182 50.612 19.3062C50.612 20.0142 50.45 20.6442 50.126 21.1962C49.802 21.7482 49.322 22.1862 48.686 22.5102C48.05 22.8222 47.288 22.9783 46.4 22.9783C45.104 22.9783 44.036 22.6482 43.196 21.9882C42.368 21.3162 41.924 20.3562 41.864 19.1082H43.844C43.892 19.7442 44.138 20.2662 44.582 20.6742C45.026 21.0702 45.626 21.2682 46.382 21.2682C47.114 21.2682 47.678 21.0702 48.074 20.6742C48.47 20.2662 48.668 19.7442 48.668 19.1082C48.668 18.2682 48.398 17.6742 47.858 17.3262C47.33 16.9662 46.514 16.7862 45.41 16.7862H44.942V15.0942H45.428C46.4 15.0822 47.138 14.9202 47.642 14.6082C48.158 14.2962 48.416 13.8042 48.416 13.1322C48.416 12.5562 48.23 12.1002 47.858 11.7642C47.486 11.4162 46.958 11.2422 46.274 11.2422C45.602 11.2422 45.08 11.4162 44.708 11.7642C44.336 12.1002 44.114 12.5202 44.042 13.0242H42.044Z" fill="#37474F"/>
</svg>
