<svg width="40" height="56" viewBox="0 0 70 56" fill="none" xmlns="http://www.w3.org/2000/svg">
<path d="M41.9073 25.6934H13.9222C10.8062 25.6934 8 27.9836 8 31.0996V39.2243C8 39.5982 8.58315 40.0667 8.95704 40.0667H46.8724C47.2465 40.0667 47.3867 39.5982 47.3867 39.2243V31.0996C47.3867 27.9836 45.0233 25.6934 41.9073 25.6934Z" stroke="#325131" stroke-width="2" stroke-miterlimit="10" stroke-linecap="round" stroke-linejoin="round"/>
<path d="M47.3867 33.0904C47.3867 32.7165 47.0835 32.4133 46.7096 32.4133H8.67704C8.30315 32.4133 8 32.7165 8 33.0904V39.3896C8 39.7635 8.30315 40.0667 8.67704 40.0667H46.7096C47.0835 40.0667 47.3867 39.7635 47.3867 39.3896V33.0904Z" stroke="#325131" stroke-width="2" stroke-miterlimit="10" stroke-linecap="round" stroke-linejoin="round"/>
<path d="M44.0267 23.64V13.496C44.0267 13.1221 43.8611 13 43.487 13H12.3425C11.9686 13 11.5467 13.1221 11.5467 13.496V23.64" stroke="#325131" stroke-width="2" stroke-miterlimit="10" stroke-linecap="round" stroke-linejoin="round"/>
<path d="M8 36.52V43.24" stroke="#325131" stroke-width="2" stroke-miterlimit="10" stroke-linecap="round" stroke-linejoin="round"/>
<path d="M47.3867 36.52V43.24" stroke="#325131" stroke-width="2" stroke-miterlimit="10" stroke-linecap="round" stroke-linejoin="round"/>
<path d="M37.034 23.6228C37.034 21.9452 37.3937 20.1786 37.3937 20.1786C37.3937 19.8809 37.1521 19.61 36.8542 19.61C36.8542 19.61 35.1768 19.9546 33.5293 19.9546C31.8818 19.9546 30.0248 19.5878 30.0248 19.5878C29.7267 19.5878 29.4852 19.8255 29.4852 20.1234C29.4852 20.1234 29.8449 21.8273 29.8449 23.6247" stroke="#325131" stroke-width="2" stroke-miterlimit="10" stroke-linecap="round" stroke-linejoin="round"/>
<path d="M25.9846 23.6228C25.9846 21.9452 26.3441 20.1786 26.3441 20.1786C26.3441 19.8809 26.1026 19.61 25.8048 19.61C25.8048 19.61 24.1273 19.9546 22.4799 19.9546C20.8322 19.9546 18.9753 19.5878 18.9753 19.5878C18.6771 19.5878 18.436 19.8255 18.436 20.1234C18.436 20.1234 18.7953 21.8273 18.7953 23.6247" stroke="#325131" stroke-width="2" stroke-miterlimit="10" stroke-linecap="round" stroke-linejoin="round"/>
<path d="M60.044 24.618C60.116 23.502 60.542 22.632 61.322 22.008C62.114 21.384 63.122 21.072 64.346 21.072C65.186 21.072 65.912 21.222 66.524 21.522C67.136 21.822 67.598 22.23 67.91 22.746C68.222 23.262 68.378 23.844 68.378 24.492C68.378 25.236 68.18 25.872 67.784 26.4C67.388 26.928 66.914 27.282 66.362 27.462V27.534C67.07 27.75 67.622 28.146 68.018 28.722C68.414 29.286 68.612 30.012 68.612 30.9C68.612 31.608 68.45 32.238 68.126 32.79C67.802 33.342 67.322 33.78 66.686 34.104C66.05 34.416 65.288 34.572 64.4 34.572C63.104 34.572 62.036 34.242 61.196 33.582C60.368 32.91 59.924 31.95 59.864 30.702H61.844C61.892 31.338 62.138 31.86 62.582 32.268C63.026 32.664 63.626 32.862 64.382 32.862C65.114 32.862 65.678 32.664 66.074 32.268C66.47 31.86 66.668 31.338 66.668 30.702C66.668 29.862 66.398 29.268 65.858 28.92C65.33 28.56 64.514 28.38 63.41 28.38H62.942V26.688H63.428C64.4 26.676 65.138 26.514 65.642 26.202C66.158 25.89 66.416 25.398 66.416 24.726C66.416 24.15 66.23 23.694 65.858 23.358C65.486 23.01 64.958 22.836 64.274 22.836C63.602 22.836 63.08 23.01 62.708 23.358C62.336 23.694 62.114 24.114 62.042 24.618H60.044Z" fill="#37474F"/>
</svg>
