<svg width="107" height="33" viewBox="0 0 174 33" fill="none" xmlns="http://www.w3.org/2000/svg">
<path d="M132.782 7.03198C140.311 7.03198 142.585 9.0655 141.37 16.0948L138.63 31.9008H131.884L134.517 16.7011C135.198 12.7851 134.437 10.9071 131.047 10.9071C129.544 10.9071 128.162 11.1535 127.318 11.3863L123.714 31.9008H116.973L120.863 9.65364C123.033 8.61816 127.836 7.03198 132.782 7.03198Z" fill="#AA014C"/>
<path d="M107.103 17.1609C108.166 12.4365 107.514 10.7913 104.598 10.7913C101.599 10.7913 99.8193 12.7692 98.8435 17.1609H107.103ZM110.692 30.46C107.353 31.6351 104.991 32.3606 101.143 32.3606C93.616 32.3606 90.2555 28.0609 91.6176 20.18C93.0266 12.0607 98.2271 7.10803 105.297 7.10803C110.234 7.10803 113.116 9.37432 113.659 13.7116C113.887 15.3204 113.581 17.7445 112.806 20.9793H98.1736C97.3139 25.983 99.0622 27.8735 104.604 27.8735C106.359 27.8735 108.273 27.7338 111.301 26.9186L110.692 30.46Z" fill="#AA014C"/>
<path d="M64.2079 12.1242C62.0821 11.4498 59.5722 10.9786 57.585 10.9786C54.6241 10.9786 53.2597 12.0039 53.0967 13.6661C52.9739 14.73 53.5031 15.342 55.5463 16.365L58.8823 18.0272C61.9861 19.5907 63.2164 21.6481 62.8658 24.6523C62.3456 29.5868 59.8335 32.389 51.6809 32.389C49.198 32.389 46.4224 32.0575 42.3584 30.9425L43.1064 27.2013C46.371 27.9882 48.3985 28.4616 50.7477 28.4616C53.7711 28.4616 55.0081 27.6418 55.2135 25.7877C55.2806 25.1553 55.0014 24.1675 53.5589 23.4056L50.0979 21.656C46.7618 19.9495 45.5604 17.6003 45.9089 14.613C46.4067 9.84888 50.4953 7.1012 57.0267 7.1012C59.2528 7.1012 61.017 7.38844 64.9648 8.38194L64.2079 12.1242Z" fill="#AA014C"/>
<path d="M87.7968 12.1242C85.68 11.4498 83.1746 10.9786 81.1828 10.9786C78.2152 10.9786 76.8709 12.0039 76.6878 13.6661C76.5739 14.73 77.101 15.342 79.1508 16.365L82.4779 18.0272C85.5773 19.5907 86.8188 21.6481 86.4748 24.6523C85.948 29.5868 83.4314 32.389 75.2901 32.389C72.7936 32.389 70.0113 32.0575 65.9697 30.9425L66.7022 27.2013C69.9577 27.9882 71.9852 28.4616 74.35 28.4616C77.3622 28.4616 78.6105 27.6418 78.8024 25.7877C78.8828 25.1553 78.6038 24.1675 77.1567 23.4056L73.6957 21.656C70.3618 19.9495 69.1517 17.6003 69.5044 14.613C70.0069 9.84888 74.0954 7.1012 80.6268 7.1012C82.8531 7.1012 84.6104 7.38844 88.5672 8.38194L87.7968 12.1242Z" fill="#AA014C"/>
<path d="M173.603 9.05978C171.823 10.5801 168.161 11.3999 163.133 11.3999C160.109 11.3999 155.337 11.4123 155.337 11.4123L153.176 23.8644C152.698 26.6507 153.415 27.5419 156.235 27.5419C157.209 27.5419 157.954 27.5 159.475 27.2626L158.814 31.0401C155.094 31.9802 153.66 32.2641 152.236 32.2641C146.923 32.2641 145.327 30.2806 146.251 24.901L150.416 0.988159L157.164 1.00179L156 7.58262H173.853L173.603 9.05978Z" fill="#AA014C"/>
<path d="M31.042 10.7913C33.9471 10.7913 34.5946 12.4365 33.5474 17.1609H25.2854C26.2523 12.7692 28.0341 10.7913 31.042 10.7913ZM39.2503 20.9793C40.0185 17.7445 40.3333 15.3204 40.1032 13.7116C39.5562 9.37432 36.669 7.10803 31.7275 7.10803C25.5913 7.10803 20.8575 10.8537 18.8031 17.1666H1.18519L0.923828 18.6494C2.16771 20.1709 5.55285 20.9793 10.588 20.9793C12.0374 20.9793 16.2844 20.9793 17.9368 20.9793C16.9342 28.3504 20.3149 32.3606 27.5809 32.3606C31.4238 32.3606 33.7884 31.6351 37.1267 30.46L37.7386 26.9186C34.7107 27.7338 32.7903 27.8735 31.042 27.8735C25.5042 27.8735 23.7492 25.983 24.6155 20.9793H39.2503Z" fill="#AA014C"/>
</svg>
