<svg width="107" height="30" viewBox="0 0 140 30" fill="none" xmlns="http://www.w3.org/2000/svg">
<path d="M0 1.02856H3.1999V29.1428H0V1.02856Z" fill="#1E53BC"/>
<path d="M9.09475 0L17.0945 14.8286L25.0942 0V29.1429H21.8943V15.9429L21.9786 12.4286L20.126 15.9429L17.0945 21.4286V21.5143L14.063 15.9429L12.2104 12.4286L12.3789 15.8571V29.0571H9.17896L9.09475 0Z" fill="#1E53BC"/>
<path d="M30.9884 0.771496C32.9252 0.685781 34.6935 0.942924 36.1251 1.28578C37.5566 1.71435 38.8197 2.31435 39.746 3.34292C40.7565 4.11435 41.4302 5.31435 41.9354 6.51435C42.3564 7.80007 42.6933 9.25721 42.6933 10.7144C42.6933 12.0001 42.5249 13.2858 42.188 14.4001C41.8512 15.5144 41.346 16.5429 40.5881 17.4001C39.9144 18.2572 38.9881 19.0286 37.9776 19.5429C36.9671 20.0572 35.704 20.4858 34.2725 20.6572V29.0572H31.0726C30.9884 29.0572 30.9884 0.771496 30.9884 0.771496ZM34.1883 17.4858C34.9462 17.4001 35.5356 17.2286 36.2093 16.9715C36.8829 16.7143 37.304 16.2001 37.8092 15.6858C38.2303 15.1715 38.5671 14.4858 38.8197 13.6286C39.0723 12.8572 39.2408 11.9144 39.2408 10.8001C39.2408 9.68578 39.0723 8.82864 38.8197 7.97149C38.5671 7.11435 38.3145 6.60007 37.8934 5.91435C37.4724 5.48578 36.9671 5.05721 36.2935 4.71435C35.704 4.45721 35.0304 4.28578 34.2725 4.20007L34.1883 17.4858Z" fill="#1E53BC"/>
<path d="M47.0722 0.771429C49.009 0.685714 50.7773 0.857143 52.2089 1.28571C53.6404 1.71429 54.9035 2.31429 55.8298 3.25714C56.7561 4.11429 57.514 5.22857 58.0192 6.42857C58.5244 7.62857 58.7771 9 58.7771 10.4571C58.7771 12.2571 58.4402 13.7143 57.8508 15.0857C57.2613 16.4571 56.2508 17.5714 54.9877 18.4286L59.7876 29.2286H56.1666L52.2089 19.8C51.6194 19.9714 51.0299 20.0571 50.3563 20.1429V29.1429H47.1564L47.0722 0.771429ZM50.2721 16.7143C51.0299 16.6286 51.6194 16.4571 52.2931 16.2C52.8825 15.9429 53.3878 15.5143 53.893 15C54.3141 14.4857 54.6509 13.8857 54.9035 13.0286C55.1561 12.2571 55.3245 11.4 55.3245 10.4571C55.3245 9.42857 55.1561 8.57143 54.9035 7.88571C54.6509 7.2 54.3141 6.51429 53.893 5.91429C53.472 5.4 52.8825 4.97143 52.2931 4.71429C51.6194 4.45714 51.0299 4.2 50.2721 4.11429V16.7143Z" fill="#1E53BC"/>
<path d="M69.5557 29.4857C69.0504 29.4857 68.461 29.4 67.8715 29.2285C67.2821 29.0571 66.7768 28.8 66.1874 28.3714C65.6821 27.9428 65.1769 27.4285 64.5874 26.6571C64.1664 25.9714 63.6611 25.0285 63.2401 24C62.8191 22.9714 62.5664 21.6857 62.398 20.2285C62.2296 18.7714 62.0612 17.0571 62.0612 15.0857C62.0612 13.1143 62.2296 11.4857 62.398 9.94283C62.5664 8.48569 62.9033 7.19998 63.2401 6.1714C63.5769 4.9714 63.998 4.02855 64.5032 3.42855C64.9243 2.74283 65.5137 2.22855 66.1032 1.71426C66.6084 1.28569 67.1979 1.02855 67.7873 0.857118C68.3768 0.68569 68.882 0.599976 69.4715 0.599976C70.0609 0.599976 70.5662 0.68569 71.1556 0.857118C71.7451 1.02855 72.2503 1.28569 72.924 1.71426C73.5135 2.05712 74.1029 2.5714 74.6924 3.42855C75.1134 4.11426 75.6187 5.05712 76.0397 6.08569C76.4607 7.11426 76.7134 8.39998 76.8818 9.85712C77.0502 11.4 77.2186 13.0285 77.2186 15C77.2186 16.9714 77.0502 18.6 76.8818 20.1428C76.7134 21.6 76.3765 22.8857 76.0397 23.9143C75.6187 24.9428 75.2818 25.8857 74.6924 26.5714C74.2713 27.2571 73.6819 27.7714 73.0924 28.2857C72.5872 28.7143 71.9977 28.9714 71.3241 29.1428C70.5662 29.4 70.0609 29.4857 69.5557 29.4857ZM69.5557 26.2285C69.9767 26.2285 70.5662 26.0571 70.9872 25.7143C71.4083 25.3714 71.9135 24.7714 72.3345 23.8285C72.7556 23.0571 73.0924 21.8571 73.345 20.4C73.5977 19.0285 73.7661 17.2285 73.7661 15.0857C73.7661 12.9428 73.5977 11.2285 73.345 9.7714C73.0924 8.39998 72.7556 7.19998 72.3345 6.34283C71.9135 5.48569 71.4925 4.9714 70.9872 4.45712C70.5662 4.11426 69.9767 3.94283 69.5557 3.94283C69.1347 3.94283 68.5452 4.11426 68.1242 4.45712C67.7031 4.79998 67.1979 5.39998 66.7768 6.34283C66.3558 7.11426 66.019 8.31426 65.7663 9.7714C65.5137 11.2285 65.3453 12.9428 65.3453 15.0857C65.3453 17.2285 65.5137 18.9428 65.7663 20.4C66.019 21.7714 66.3558 22.9714 66.7768 23.8285C67.1979 24.6 67.6189 25.2 68.1242 25.7143C68.5452 26.0571 69.0504 26.2285 69.5557 26.2285Z" fill="#1E53BC"/>
<path d="M79.1557 1.02856H82.6083L86.3976 16.0286L87.1555 19.3714L87.9134 16.0286L91.7869 1.02856H95.2394L87.1555 30L79.1557 1.02856Z" fill="#1E53BC"/>
<path d="M98.6075 1.02856H107.87V4.11428H101.807V14.9143H107.028V18H101.807V25.9714H107.87V29.0571H98.6075V1.02856Z" fill="#1E53BC"/>
<path d="M112.923 0.771429C114.86 0.685714 116.628 0.857143 118.06 1.28571C119.491 1.71429 120.754 2.31429 121.681 3.25714C122.607 4.11429 123.365 5.22857 123.87 6.42857C124.291 7.62857 124.628 9 124.628 10.4571C124.628 12.2571 124.291 13.7143 123.701 15.0857C123.112 16.4571 122.102 17.5714 120.838 18.4286L125.722 29.1429H122.102L118.144 19.7143C117.554 19.8857 116.965 19.9714 116.291 20.0571V29.1429H113.091V0.771429H112.923ZM116.123 16.7143C116.881 16.6286 117.47 16.4571 118.144 16.2C118.733 15.9429 119.238 15.5143 119.744 15C120.165 14.4857 120.502 13.8857 120.754 13.0286C121.007 12.2571 121.175 11.4 121.175 10.4571C121.175 9.42857 121.007 8.57143 120.754 7.88571C120.502 7.2 120.165 6.51429 119.744 5.91429C119.323 5.4 118.733 4.97143 118.144 4.71429C117.554 4.45714 116.881 4.28571 116.123 4.2V16.7143Z" fill="#1E53BC"/>
<path d="M129.091 24.9429C129.596 25.2857 130.185 25.5429 130.859 25.8C131.448 26.0571 132.122 26.2286 132.88 26.2286C133.301 26.2286 133.722 26.1429 134.143 26.0571C134.564 25.8857 134.901 25.7143 135.154 25.4571C135.49 25.2 135.659 24.8571 135.912 24.4286C136.164 24 136.164 23.5714 136.164 22.9714C136.164 22.5429 136.08 22.2 135.996 21.7714C135.911 21.3429 135.743 20.9143 135.575 20.4C135.406 19.8857 135.069 19.3714 134.733 18.7714C134.396 18.2571 133.975 17.6571 133.385 16.8L131.196 13.9714C130.691 13.2 130.185 12.6 129.849 11.9143C129.427 11.3143 129.175 10.6286 128.922 10.0286C128.67 9.42857 128.501 8.91428 128.417 8.31428C128.333 7.71428 128.249 7.28571 128.249 6.68571C128.249 5.82857 128.417 4.97143 128.67 4.2C128.922 3.42857 129.343 2.82857 129.849 2.22857C130.354 1.62857 131.027 1.28571 131.785 0.942854C132.543 0.685711 133.385 0.514282 134.312 0.514282C135.069 0.514282 135.911 0.685711 136.585 0.857139C137.343 1.02857 138.185 1.37143 138.859 1.8L137.343 4.62857C136.922 4.37142 136.501 4.2 135.996 4.02857C135.575 3.85714 134.985 3.77143 134.396 3.77143C133.469 3.77143 132.712 4.02857 132.122 4.54285C131.617 5.05714 131.28 5.82857 131.28 6.85714C131.28 7.11428 131.28 7.37142 131.364 7.62857C131.448 7.88571 131.533 8.22857 131.701 8.57142C131.87 8.91428 132.038 9.34285 132.291 9.68571C132.543 10.1143 132.796 10.5429 133.217 11.0571L136.417 15.4286C136.838 15.9429 137.175 16.4571 137.596 17.0571C138.017 17.5714 138.269 18.0857 138.522 18.6857C138.775 19.2 138.943 19.8 139.111 20.4857C139.28 21.1714 139.28 21.7714 139.28 22.4571C139.28 23.4857 139.111 24.4286 138.859 25.2857C138.522 26.0571 138.101 26.9143 137.511 27.4286C136.922 28.0286 136.164 28.4571 135.322 28.8C134.564 29.1429 133.554 29.2286 132.627 29.2286C131.617 29.2286 130.606 29.0571 129.764 28.8C128.838 28.5429 127.996 28.1143 127.322 27.6857L129.091 24.9429Z" fill="#1E53BC"/>
</svg>
