<svg width="15" height="34" viewBox="0 0 26 34" fill="none" xmlns="http://www.w3.org/2000/svg">
<g clip-path="url(#clip0_68_152)">
<path d="M13 0C5.82089 0 0 5.70895 0 12.75C0 17.8905 1.82609 19.3262 11.6661 33.316C12.3115 34.2304 13.6913 34.2304 14.3366 33.316C24.1719 19.3242 26 17.8898 26 12.75C26 5.70895 20.1771 0 13 0ZM13 18.0027C10.012 18.0027 7.58333 15.6201 7.58333 12.6902C7.58333 9.76039 10.0141 7.37773 13 7.37773C15.9859 7.37773 18.4167 9.76039 18.4167 12.6902C18.4167 15.6201 15.9859 18.0027 13 18.0027Z" fill="#325131"/>
</g>
<defs>
<clipPath id="clip0_68_152">
<rect width="26" height="34" fill="white"/>
</clipPath>
</defs>
</svg>
