<svg width="120" height="38" viewBox="0 0 154 38" fill="none" xmlns="http://www.w3.org/2000/svg">
<path d="M18.9562 0C29.4251 0 37.9089 8.50689 37.9089 19C37.9089 29.4931 29.4251 38 18.9562 38C8.48727 38 0 29.4931 0 19C0 8.50689 8.48727 0 18.9562 0ZM25.7091 1.67555C21.7667 1.68951 17.4168 3.38251 14.2406 6.01451C10.9878 8.71633 8.43848 13.2717 8.45583 18.0017C8.4803 25.1576 13.8993 29.6121 19.1059 29.5944C25.5348 29.5733 29.3379 24.2814 29.324 19.4502C29.3065 14.6226 26.6876 11.1318 20.9168 9.72159C20.9029 9.66221 20.8925 9.53302 20.8925 9.41093C20.8821 5.7631 23.6264 2.54466 27.0743 1.82906C26.7504 1.71735 26.2175 1.67555 25.7091 1.67555Z" fill="#EE3023"/>
<path d="M50.1504 26.868L44.3552 13.0063H48.1409L51.7559 22.2114L55.2595 13.0063H58.8745L53.25 26.868H50.1504Z" fill="#EE3023"/>
<path d="M68.9604 19.8657C68.9604 19.2897 68.8943 18.7417 68.7584 18.2216C68.626 17.7015 68.4241 17.2547 68.1559 16.8812C67.8877 16.5042 67.5638 16.2074 67.1807 15.9875C66.7977 15.7641 66.3484 15.6524 65.833 15.6524C65.3175 15.6524 64.8648 15.7641 64.4852 15.9875C64.1021 16.2074 63.7747 16.5042 63.51 16.8812C63.2418 17.2547 63.0399 17.7015 62.9075 18.2216C62.7717 18.7417 62.7055 19.2897 62.7055 19.8657C62.7055 20.4626 62.7717 21.0176 62.9075 21.5273C63.0399 22.0369 63.2349 22.4838 63.4926 22.8677C63.7503 23.2517 64.0777 23.5554 64.4712 23.7788C64.8613 23.9987 65.3175 24.1104 65.833 24.1104C66.3484 24.1104 66.7977 23.9987 67.1807 23.7788C67.5638 23.5554 67.8877 23.2517 68.1559 22.8677C68.4241 22.4838 68.6261 22.0369 68.7584 21.5273C68.8942 21.0176 68.9604 20.4626 68.9604 19.8657ZM72.4605 19.8809C72.4605 20.785 72.3212 21.6716 72.046 22.5443C71.7674 23.417 71.3565 24.1954 70.8097 24.8866C70.2664 25.5778 69.5768 26.1328 68.7445 26.5552C67.9121 26.9775 66.9405 27.187 65.833 27.187C64.722 27.187 63.7503 26.9775 62.9215 26.5552C62.0891 26.1328 61.3995 25.5778 60.8527 24.8866C60.3095 24.1954 59.8985 23.417 59.6199 22.5443C59.3448 21.6717 59.2054 20.785 59.2054 19.8809C59.2054 18.9803 59.3447 18.1006 59.6199 17.235C59.8985 16.3727 60.3095 15.6013 60.8527 14.9206C61.3995 14.2399 62.0891 13.6953 62.9215 13.2835C63.7503 12.8715 64.722 12.6621 65.833 12.6621C66.9405 12.6621 67.9086 12.8716 68.7305 13.2835C69.5525 13.6953 70.242 14.2399 70.7958 14.9206C71.353 15.6013 71.7674 16.3727 72.046 17.235C72.3212 18.1006 72.4605 18.9803 72.4605 19.8809Z" fill="#EE3023"/>
<path d="M83.1487 16.0573C82.4626 15.7885 81.8253 15.6524 81.2332 15.6524C80.6272 15.6524 80.1013 15.7712 79.666 16.0014C79.2272 16.2317 78.865 16.5425 78.5794 16.9369C78.2938 17.3314 78.0814 17.7747 77.9386 18.2669C77.7958 18.7556 77.7227 19.2618 77.7227 19.7819C77.7227 20.3578 77.7853 20.9094 77.9108 21.44C78.0326 21.9671 78.2242 22.4313 78.4819 22.8258C78.7361 23.2202 79.06 23.5379 79.4501 23.7788C79.8402 24.0161 80.3033 24.1383 80.8362 24.1383C81.275 24.1383 81.7208 24.0162 82.177 23.7788C82.6333 23.5379 82.9571 23.2517 83.1487 22.927V16.0573ZM83.4343 26.868L83.2915 25.8069C82.9676 26.1699 82.5392 26.4911 82.0029 26.7668C81.47 27.0461 80.8397 27.1857 80.1153 27.1857C79.1645 27.1857 78.3217 26.9833 77.6008 26.5818C76.8729 26.1804 76.2634 25.6428 75.7689 24.9726C75.2744 24.3024 74.8948 23.5239 74.637 22.6408C74.3828 21.7611 74.2539 20.8396 74.2539 19.8796C74.2539 18.979 74.3863 18.0959 74.651 17.2337C74.9191 16.3714 75.3231 15.6 75.8664 14.9193C76.4132 14.2386 77.0923 13.6941 77.9142 13.2822C78.7327 12.8703 79.6974 12.6608 80.8014 12.6608C81.5258 12.6608 82.3094 12.7968 83.1487 13.0622V7.68652H86.7045V26.868H83.4343Z" fill="#EE3023"/>
<path d="M96.7209 20.3684C96.3378 20.3886 95.9407 20.4244 95.5368 20.4697C95.1328 20.5186 94.7497 20.5814 94.384 20.6582C93.6108 20.8117 93.078 21.0736 92.7785 21.4471C92.4825 21.8241 92.3327 22.229 92.3327 22.6723C92.3327 23.1296 92.4999 23.4996 92.8377 23.7789C93.1755 24.0546 93.6491 24.1943 94.2656 24.1943C94.7288 24.1943 95.178 24.1 95.6099 23.908C96.0417 23.716 96.4144 23.4752 96.7209 23.1889V20.3684ZM97.0064 26.8576L96.8671 25.8209C96.4806 26.2468 95.993 26.5819 95.3975 26.8227C94.8019 27.0636 94.1507 27.1858 93.4402 27.1858C92.8447 27.1858 92.27 27.0844 91.7267 26.8821C91.1765 26.6832 90.6924 26.3934 90.271 26.0199C89.8496 25.6464 89.5083 25.1891 89.2505 24.641C88.9893 24.093 88.8605 23.4751 88.8605 22.784C88.8605 22.0963 88.9928 21.4854 89.2645 20.9583C89.5326 20.4312 89.8948 19.9879 90.358 19.6214C90.8177 19.2583 91.3471 18.9616 91.9426 18.7313C92.5347 18.501 93.1616 18.3263 93.8128 18.2111C94.2726 18.1169 94.7775 18.047 95.3243 17.9981C95.8711 17.9492 96.3273 17.9074 96.693 17.8689V17.6665C96.693 16.8986 96.498 16.354 96.101 16.0259C95.7074 15.7012 95.1641 15.5372 94.4745 15.5372C94.0706 15.5372 93.684 15.586 93.3183 15.6838C92.9526 15.7781 92.6287 15.8969 92.3397 16.0399C92.0506 16.1865 91.7964 16.3296 91.5735 16.4727C91.3541 16.6159 91.1765 16.745 91.0406 16.8602L89.8635 14.3608C90.0167 14.2248 90.2501 14.0641 90.567 13.8721C90.8839 13.6801 91.2635 13.4916 91.7163 13.3101C92.1655 13.1285 92.6705 12.975 93.2347 12.8494C93.7989 12.7237 94.4084 12.6609 95.0561 12.6609C95.8223 12.6609 96.5224 12.7622 97.1527 12.9646C97.7831 13.167 98.3299 13.4812 98.7896 13.914C99.2458 14.3434 99.6045 14.888 99.8657 15.5512C100.123 16.2109 100.252 17.0103 100.252 17.9493V26.8576H97.0064Z" fill="#EE3023"/>
<path d="M111.244 10.8492C111.129 10.7934 110.906 10.7096 110.571 10.6047C110.234 10.5001 109.791 10.4477 109.234 10.4477C108.739 10.4477 108.322 10.5979 107.987 10.8945C107.653 11.1912 107.486 11.6764 107.486 12.3466V13.0064H110.47V15.8827H107.514V26.868H103.954V15.8827H102.119V13.0064H103.954V12.2593C103.954 11.3587 104.069 10.5978 104.299 9.97293C104.529 9.35158 104.849 8.84192 105.26 8.45096C105.671 8.05651 106.155 7.76679 106.709 7.58527C107.266 7.40365 107.869 7.31299 108.52 7.31299C109.38 7.31299 110.091 7.39329 110.655 7.55743C111.219 7.72158 111.55 7.82969 111.644 7.88904L111.244 10.8492Z" fill="#EE3023"/>
<path d="M120.943 19.8657C120.943 19.2897 120.873 18.7417 120.741 18.2216C120.609 17.7015 120.407 17.2547 120.139 16.8812C119.87 16.5042 119.547 16.2074 119.163 15.9875C118.78 15.7641 118.331 15.6524 117.816 15.6524C117.3 15.6524 116.847 15.7641 116.468 15.9875C116.085 16.2074 115.757 16.5042 115.489 16.8812C115.225 17.2547 115.023 17.7015 114.887 18.2216C114.754 18.7417 114.688 19.2897 114.688 19.8657C114.688 20.4626 114.754 21.0176 114.887 21.5273C115.023 22.0369 115.218 22.4838 115.475 22.8677C115.733 23.2517 116.06 23.5554 116.45 23.7788C116.844 23.9987 117.3 24.1104 117.816 24.1104C118.331 24.1104 118.78 23.9987 119.163 23.7788C119.547 23.5554 119.87 23.2517 120.139 22.8677C120.407 22.4838 120.609 22.0369 120.741 21.5273C120.873 21.0176 120.943 20.4626 120.943 19.8657ZM124.443 19.8809C124.443 20.785 124.304 21.6716 124.025 22.5443C123.75 23.417 123.339 24.1954 122.792 24.8866C122.249 25.5778 121.56 26.1328 120.727 26.5552C119.895 26.9775 118.923 27.187 117.816 27.187C116.705 27.187 115.733 26.9775 114.904 26.5552C114.072 26.1328 113.382 25.5778 112.835 24.8866C112.292 24.1954 111.881 23.417 111.603 22.5443C111.324 21.6717 111.188 20.785 111.188 19.8809C111.188 18.9803 111.324 18.1006 111.603 17.235C111.881 16.3727 112.292 15.6013 112.835 14.9206C113.382 14.2399 114.072 13.6953 114.904 13.2835C115.733 12.8715 116.705 12.6621 117.816 12.6621C118.923 12.6621 119.891 12.8716 120.713 13.2835C121.535 13.6953 122.225 14.2399 122.778 14.9206C123.336 15.6013 123.75 16.3727 124.025 17.235C124.304 18.1006 124.443 18.9803 124.443 19.8809Z" fill="#EE3023"/>
<path d="M135.487 26.868V18.9616C135.487 17.9074 135.267 17.0905 134.828 16.5146C134.386 15.9421 133.777 15.6524 132.989 15.6524C132.436 15.6524 131.924 15.7955 131.457 16.0852C130.987 16.3714 130.579 16.6891 130.235 17.0347V26.868H126.679V13.0064H129.921L130.092 14.099C130.649 13.6417 131.273 13.2857 131.973 13.0378C132.669 12.7865 133.373 12.6643 134.08 12.6643C134.807 12.6643 135.476 12.7725 136.089 12.9924C136.702 13.2158 137.228 13.5649 137.667 14.0431C138.109 14.5214 138.447 15.1462 138.687 15.9107C138.924 16.6786 139.046 17.6002 139.046 18.6718V26.868H135.487Z" fill="#EE3023"/>
<path d="M150.114 18.2704C150.075 17.7922 149.974 17.3733 149.811 17.0207C149.647 16.6647 149.445 16.3784 149.205 16.1585C148.965 15.9351 148.707 15.7745 148.428 15.6663C148.146 15.5617 147.864 15.5093 147.575 15.5093C146.959 15.5093 146.373 15.7395 145.816 16.2004C145.259 16.6612 144.932 17.3489 144.834 18.2704H150.114ZM144.75 20.8291C144.827 21.9985 145.189 22.8433 145.844 23.3599C146.495 23.8765 147.342 24.1383 148.376 24.1383C148.857 24.1383 149.309 24.093 149.731 24.0091C150.152 23.922 150.528 23.8136 150.856 23.6775C151.183 23.5448 151.462 23.4087 151.691 23.2761C151.921 23.14 152.092 23.0143 152.21 22.8991L153.158 25.8068C153.022 25.9011 152.806 26.0303 152.51 26.1943C152.214 26.3585 151.845 26.5085 151.406 26.6551C150.967 26.7982 150.448 26.9204 149.856 27.0286C149.264 27.1332 148.613 27.1856 147.906 27.1856C147.004 27.1856 146.151 27.0425 145.336 26.7563C144.524 26.4666 143.81 26.0197 143.201 25.4159C142.588 24.812 142.1 24.0615 141.738 23.1609C141.372 22.2602 141.191 21.1851 141.191 19.9389C141.191 18.7695 141.358 17.7328 141.693 16.8322C142.027 15.9316 142.487 15.1741 143.068 14.5597C143.653 13.9488 144.333 13.4776 145.106 13.1495C145.882 12.8248 146.708 12.6608 147.589 12.6608C148.47 12.6608 149.281 12.8074 150.03 13.0936C150.776 13.3798 151.42 13.8267 151.967 14.4305C152.51 15.0344 152.942 15.8164 153.255 16.7763C153.572 17.7328 153.729 18.8743 153.729 20.1972V20.8291L144.75 20.8291Z" fill="#EE3023"/>
</svg>
