<svg width="107" height="38" viewBox="0 0 107 38" fill="none" xmlns="http://www.w3.org/2000/svg">
<path d="M36.6909 8.32729C34.4016 8.33047 32.3229 10.2995 32.3229 12.4115V29.2884C34.6122 29.2821 36.6909 27.3162 36.6909 25.2042L36.6909 8.32729ZM96.6558 25.2995C95.172 25.2963 93.9049 24.785 92.7866 23.7401C91.7148 22.6857 91.2098 21.4883 91.1974 19.948C91.1757 19.316 91.1757 17.9186 91.2005 17.2612C91.2129 15.7558 91.721 14.5743 92.7959 13.5358C93.8771 12.4719 95.141 11.9542 96.6558 11.9542C98.1707 11.9542 99.4315 12.4719 100.519 13.5422C101.591 14.5743 102.096 15.7558 102.111 17.2739C102.133 17.89 102.142 19.2811 102.111 19.9639C102.099 21.4883 101.594 22.6857 100.534 23.7305C99.4067 24.785 98.1366 25.2963 96.6558 25.2995ZM106.55 17.2517C106.544 14.5839 105.565 12.275 103.645 10.3885C101.702 8.47973 99.3509 7.51425 96.6558 7.51425H96.6527C93.9607 7.51425 91.6094 8.47973 89.6671 10.3885C87.7464 12.275 86.7675 14.5839 86.7613 17.2326C86.7489 17.6455 86.7489 19.4208 86.7613 19.9734C86.7768 22.6666 87.7557 24.985 89.6671 26.8652L89.6919 26.8874C91.6404 28.5961 93.9824 29.4631 96.6527 29.4631H96.6558C99.3231 29.4631 101.668 28.5961 103.617 26.8906L103.645 26.8652C105.556 24.985 106.532 22.6666 106.55 19.983C106.563 19.4208 106.563 17.6455 106.55 17.2517ZM80.6152 19.4812C79.153 20.0814 78.7193 21.2597 78.5148 21.8218C78.2546 22.5269 77.8364 23.1525 77.2509 23.7305C76.1233 24.785 74.8563 25.2963 73.3724 25.2995C71.8917 25.2963 70.6215 24.785 69.5032 23.7401C68.4314 22.6857 67.9264 21.4883 67.914 19.948C67.8923 19.316 67.8923 17.9186 67.9171 17.2612C67.9326 15.7558 68.4376 14.5743 69.5125 13.5358C70.5937 12.4719 71.8576 11.9542 73.3724 11.9542C74.8873 11.9542 76.1822 12.4115 77.5483 13.8661C77.9139 14.2567 78.487 14.514 79.088 14.514C79.6951 14.514 80.2465 14.2599 80.6431 13.8534C81.0427 13.4469 81.2874 12.8816 81.2874 12.2591C81.2874 11.7224 81.1077 11.2269 80.798 10.8426C79.5805 9.33088 76.9535 7.51425 73.3724 7.51425C70.6773 7.51425 68.326 8.47973 66.3837 10.3885C64.463 12.275 63.4841 14.5839 63.4779 17.2326C63.4655 17.6455 63.4655 19.4208 63.4779 19.9734C63.4965 22.6666 64.4723 24.985 66.3837 26.8652L66.4116 26.8874C68.3601 28.5961 70.7021 29.4631 73.3724 29.4631C75.4263 29.4631 77.2726 28.9581 78.9114 27.9418C78.9114 29.2313 78.1431 33.5601 73.4158 33.5601C72.0682 33.5601 71.1234 33.0328 70.8105 32.8391C68.9394 31.6926 67.0311 32.5469 65.6588 33.9539C65.6588 33.9539 68.2889 38 73.3972 38C75.9994 38 78.3692 37.206 80.2496 35.2814C82.3376 33.144 83.2576 30.4603 83.2576 27.3733V19.0333C83.2576 19.0333 81.845 18.9794 80.6152 19.4812ZM59.9743 19.0333V27.3733C59.9743 30.4603 59.0542 33.144 56.9662 35.2814C55.089 37.206 52.716 38 50.1138 38C45.0055 38 42.3754 33.9539 42.3754 33.9539C43.7477 32.5469 45.6591 31.6926 47.5271 32.8391C47.8431 33.0328 48.7848 33.5601 50.1324 33.5601C54.8597 33.5601 55.628 29.2313 55.628 27.9418C53.9923 28.9581 52.1429 29.4631 50.089 29.4631C47.4187 29.4631 45.0767 28.5961 43.1282 26.8874L43.1034 26.8652C41.1889 24.985 40.2131 22.6666 40.1945 19.9734C40.1821 19.4208 40.1821 17.6455 40.1945 17.2326C40.2007 14.5839 41.1796 12.275 43.1034 10.3885C45.0426 8.47973 47.3939 7.51425 50.089 7.51425C53.6701 7.51425 56.2971 9.33088 57.5146 10.8426C57.8244 11.2269 58.004 11.7224 58.004 12.2591C58.004 12.8816 57.7593 13.4469 57.3597 13.8534C56.9632 14.2599 56.4148 14.514 55.8046 14.514C55.2067 14.514 54.6305 14.2567 54.2649 13.8661C52.9019 12.4115 51.6039 11.9542 50.089 11.9542C48.5742 11.9542 47.3134 12.4719 46.2322 13.5358C45.1542 14.5743 44.6492 15.7558 44.6337 17.2612C44.609 17.9186 44.609 19.316 44.6337 19.948C44.6461 21.4883 45.1511 22.6857 46.2229 23.7401C47.3382 24.785 48.6083 25.2963 50.089 25.2995C51.5729 25.2963 52.8399 24.785 53.9675 23.7305C54.5561 23.1525 54.9712 22.5269 55.2315 21.8218C55.4359 21.2597 55.8696 20.0814 57.3318 19.4812C58.5616 18.9794 59.9743 19.0333 59.9743 19.0333ZM28.3701 29.2884C28.2926 27.656 27.2146 25.1407 24.5101 24.8104L14.8851 24.8104L25.9723 13.9265C26.4432 13.4659 27.4934 11.9161 26.7437 10.2424C26.1427 8.89896 25.1359 8.32729 23.3794 8.32729L9.56304 8.32729C9.6188 10.2074 10.5327 12.4496 12.9645 12.8498L20.8578 12.8498L9.1913 24.0926C8.71733 24.5563 7.93977 25.9886 8.55315 27.4432C9.10766 28.7549 10.0432 29.2884 11.778 29.2884L28.3701 29.2884ZM34.2838 31.953C34.7113 32.3913 34.9251 32.9662 34.9251 33.5378C34.9251 34.2206 34.6277 34.7701 34.2869 35.1226C33.6364 35.7864 32.7504 36.4819 31.5918 36.971C30.6191 37.387 29.5534 37.6157 28.4351 37.6157H8.25575C5.97574 37.6157 3.91258 36.6661 2.41632 35.1353C0.923158 33.6045 0 31.4893 0 29.1519L0 8.46385C0 6.12637 0.923158 4.0112 2.41632 2.4804C3.91258 0.949604 5.97574 0 8.25575 0H28.4351C29.5534 0 30.6191 0.228668 31.5918 0.644714C32.927 1.21003 33.7789 1.90873 34.6029 2.82022C34.9313 3.18228 35.2442 3.71901 35.2442 4.40501C35.2442 4.97668 35.0304 5.55153 34.6029 5.98663C34.1754 6.42491 33.6178 6.64405 33.0602 6.64405C32.4995 6.64405 31.9326 6.41856 31.5144 5.98663C30.932 5.38955 30.6129 5.08466 29.9438 4.79248C29.4791 4.5924 28.971 4.48124 28.4351 4.48124H8.25575C7.1839 4.48124 6.21118 4.92587 5.50797 5.64998C4.80476 6.36774 4.36796 7.36498 4.36796 8.46385L4.36796 29.1519C4.36796 30.2507 4.80476 31.248 5.50797 31.9689C6.21118 32.6898 7.1839 33.1345 8.25575 33.1345H28.4351C28.971 33.1345 29.4791 33.0233 29.9438 32.8232C30.362 32.6422 30.7988 32.3595 31.1953 31.953C31.6166 31.5243 32.1804 31.2988 32.7411 31.2988C33.2987 31.2988 33.8594 31.5179 34.2838 31.953Z" fill="#F48C00"/>
</svg>
